<?xml version="1.0" standalone="no"?>
<!DOCTYPE svg PUBLIC "-//W3C//DTD SVG 20010904//EN"
 "http://www.w3.org/TR/2001/REC-SVG-20010904/DTD/svg10.dtd">
<svg version="1.0" xmlns="http://www.w3.org/2000/svg"
 width="781.000000pt" height="911.000000pt" viewBox="0 0 781.000000 911.000000"
 preserveAspectRatio="xMidYMid meet">

<g transform="translate(0.000000,911.000000) scale(0.100000,-0.100000)"
fill="#000000" stroke="none">
<path d="M1626 9003 c-13 -217 -49 -307 -172 -430 -70 -69 -97 -89 -185 -131
-159 -77 -209 -87 -441 -87 l-198 0 0 -2101 c0 -1362 4 -2138 10 -2205 40
-400 147 -772 325 -1129 168 -337 367 -614 629 -875 749 -745 1779 -1079 2816
-914 687 109 1335 450 1829 964 537 559 850 1261 911 2039 6 80 10 882 10
2126 l0 1998 -31 6 c-17 3 -58 6 -90 6 -329 0 -595 172 -680 440 -18 55 -21
89 -20 233 l1 167 -2354 0 -2354 0 -6 -107z m4674 -76 c0 -235 39 -338 179
-477 142 -141 266 -194 499 -213 l143 -11 -4 -2081 c-3 -2285 1 -2121 -63
-2433 -197 -962 -846 -1804 -1729 -2245 -366 -182 -729 -287 -1138 -328 -174
-17 -586 -7 -752 19 -361 56 -720 173 -1020 331 -314 165 -566 353 -821 613
-263 268 -455 540 -614 870 -182 381 -283 771 -310 1208 -7 108 -10 855 -8
2150 l3 1985 145 -3 c227 -5 403 39 557 140 182 119 274 270 288 472 3 45 8
96 11 114 l5 32 2314 0 2315 0 0 -143z"/>
<path d="M1807 8818 c-70 -369 -426 -645 -859 -665 l-118 -6 0 -1991 c0 -2159
-2 -2083 55 -2374 199 -1022 928 -1901 1891 -2280 227 -89 470 -152 734 -189
175 -24 584 -24 765 1 551 75 1045 280 1480 615 167 128 418 379 546 546 183
237 378 591 473 857 92 257 156 557 176 823 6 89 10 832 10 2027 l0 1887 -32
5 c-241 35 -377 90 -518 211 -164 139 -255 320 -275 543 l-7 82 -2152 0 -2152
0 -17 -92z m2145 -415 l68 -67 0 -1673 0 -1673 -145 0 -145 0 0 1678 0 1677
71 63 c38 34 73 62 77 62 3 0 37 -30 74 -67z m-302 -1773 l0 -1640 -85 0 -85
0 0 1556 0 1557 78 83 c42 45 80 83 85 83 4 1 7 -737 7 -1639z m640 -82 l0
-1558 -85 0 -85 0 0 1642 0 1643 85 -85 85 -85 0 -1557z m-890 -13 l0 -1545
-85 0 -85 0 0 1459 0 1458 81 87 c44 47 83 86 85 86 2 0 4 -695 4 -1545z
m1140 -93 l0 -1463 -82 3 -83 3 -2 1550 -2 1550 84 -90 84 -90 1 -1463z
m-1939 1338 c4 0 12 7 17 17 9 14 10 14 16 -5 8 -25 17 -27 34 -10 9 9 12 7
12 -11 0 -18 4 -21 20 -16 15 5 20 2 20 -13 0 -16 5 -19 21 -15 19 5 20 4 10
-16 -11 -19 -9 -21 14 -21 25 0 34 -14 15 -25 -16 -10 -11 -22 12 -28 21 -6
21 -7 4 -26 -17 -19 -17 -20 5 -31 l22 -12 -22 -12 c-20 -11 -21 -14 -6 -26
15 -12 14 -15 -6 -25 -14 -8 -18 -15 -10 -19 16 -10 13 -26 -5 -26 -12 0 -15
-6 -11 -20 4 -17 2 -20 -15 -14 -18 5 -20 3 -16 -20 5 -26 -5 -35 -17 -16 -12
19 -25 10 -25 -17 0 -25 0 -26 -20 -8 -20 18 -20 17 -20 -15 0 -31 -1 -32 -18
-17 -25 23 -30 21 -34 -10 l-4 -28 -13 27 c-8 15 -19 24 -26 21 -8 -2 -24 1
-37 7 -22 11 -22 10 -4 -4 11 -9 26 -16 35 -16 11 0 9 -6 -8 -24 l-23 -24 21
-11 c27 -15 27 -27 -1 -34 l-22 -6 24 -26 23 -25 -27 0 c-28 0 -28 0 -11 -26
17 -27 17 -27 -9 -22 -28 6 -32 -2 -16 -33 12 -22 7 -24 -22 -8 -20 11 -20 9
-14 -26 l7 -36 -25 17 -26 16 0 -33 0 -32 -23 21 c-13 12 -30 22 -38 21 -10 0
-11 -2 -1 -6 10 -4 10 -8 0 -21 -10 -12 -10 -14 0 -8 7 4 12 1 12 -9 0 -12 -6
-15 -22 -10 -14 3 -10 -1 10 -13 l33 -18 -26 -12 -26 -12 28 -25 28 -24 -34
-1 -35 0 30 -31 29 -31 -32 4 c-37 5 -40 1 -18 -28 21 -28 18 -34 -16 -27
l-30 6 14 -36 15 -35 -35 14 c-38 16 -37 21 -17 -48 6 -22 6 -22 -19 -5 -36
23 -37 22 -37 -19 0 -36 0 -36 -25 -20 -31 21 -35 20 -35 -5 0 -23 -14 -40
-50 -59 l-25 -13 40 -17 39 -17 -34 -11 -34 -12 34 -25 c29 -21 31 -25 13 -25
-12 0 -29 -3 -38 -6 -14 -6 -12 -11 11 -35 l28 -29 -38 0 -37 0 27 -35 27 -36
-42 7 -42 7 22 -38 23 -38 -37 7 c-42 8 -42 8 -23 -39 l14 -34 -39 14 c-21 8
-39 13 -39 11 0 -2 6 -22 14 -44 13 -35 13 -40 0 -35 -7 3 -11 9 -8 14 3 5 -5
9 -18 10 -13 0 -33 2 -46 3 -13 2 -25 -1 -28 -6 -3 -4 14 -8 38 -8 l43 0 -30
-26 c-16 -14 -24 -23 -17 -19 6 3 12 1 12 -4 0 -6 12 -11 26 -11 21 0 24 -3
16 -13 -9 -10 -4 -19 18 -39 16 -14 30 -24 32 -23 2 2 125 -78 273 -176 l270
-179 -306 0 -306 0 -11 -25 c-17 -36 -17 -36 30 -29 l42 7 -23 -29 -23 -29 47
-5 47 -5 -26 -24 c-36 -34 -33 -41 16 -41 l41 0 -19 -22 -19 -22 26 20 c15 10
25 23 22 27 -2 4 37 6 89 5 l93 -3 0 -430 0 -430 -30 2 c-20 2 -25 0 -16 -6
11 -7 9 -11 -8 -20 -12 -7 -26 -9 -31 -6 -6 3 -10 -1 -10 -10 0 -13 5 -13 40
5 28 14 40 17 40 8 0 -9 3 -8 11 2 7 12 9 8 7 -15 -2 -21 -8 -30 -20 -29 -10
1 -18 -4 -18 -12 0 -11 7 -11 41 1 23 8 43 15 45 15 2 0 -5 -15 -16 -32 -11
-18 -20 -36 -20 -39 0 -4 19 -3 43 1 23 5 44 7 46 5 2 -2 -6 -16 -18 -31 -31
-39 -27 -44 26 -37 l48 6 -27 -35 c-15 -20 -24 -38 -21 -42 4 -3 24 -6 47 -6
l40 0 -33 -34 -33 -34 48 -7 48 -7 -34 -28 c-19 -16 -33 -31 -30 -33 3 -3 25
-9 50 -14 l45 -9 -42 -23 c-23 -14 -40 -27 -38 -31 3 -4 21 -11 40 -14 19 -4
35 -10 35 -14 0 -4 -16 -16 -36 -27 l-36 -19 42 -18 c24 -10 41 -21 38 -23 -2
-3 -22 -11 -44 -19 l-39 -13 38 -19 c20 -10 37 -21 37 -25 0 -3 -19 -10 -42
-13 l-43 -7 37 -22 c21 -12 38 -25 38 -29 0 -5 -19 -8 -42 -8 l-42 0 34 -30
35 -30 -44 7 -45 6 23 -31 c25 -36 22 -38 -19 -17 -35 18 -35 18 -15 -29 l16
-37 -42 27 -42 26 6 -42 5 -42 -33 32 -33 32 -9 -39 -9 -38 -19 33 c-11 17
-22 32 -25 32 -3 0 -11 -15 -18 -32 l-13 -33 -19 45 c-10 25 -19 41 -20 35 0
-5 -9 -21 -19 -35 l-19 -24 -12 43 -11 43 -30 -28 -29 -28 0 42 c0 23 -3 42
-6 42 -15 0 -44 -22 -39 -30 3 -6 -1 -7 -9 -4 -11 4 -16 19 -16 45 0 44 0 44
-40 24 l-30 -15 7 45 6 45 -32 -11 c-18 -6 -34 -10 -36 -7 -2 2 0 21 5 42 l8
38 -35 -7 c-34 -6 -35 -5 -29 18 3 14 9 32 12 41 5 13 -1 16 -30 16 l-37 0 16
30 c23 45 17 50 -8 5 l-23 -40 -411 -3 -411 -2 -7 32 c-3 18 -9 256 -12 528
l-5 495 247 65 c135 35 239 67 230 70 -13 5 -12 9 10 30 31 30 31 38 0 46 -32
8 -32 18 1 41 l26 20 -31 19 -31 20 36 18 37 17 -32 23 -31 23 31 9 c17 5 29
14 27 19 -2 6 -5 9 -8 8 -3 -1 -7 7 -7 18 -1 10 5 19 13 19 8 0 14 8 14 18 0
15 -6 18 -32 14 l-32 -5 17 26 c24 37 21 47 -15 47 l-31 0 19 23 c10 12 12 16
4 10 -8 -7 -28 -13 -45 -13 l-30 0 25 20 c14 11 34 20 45 21 17 2 17 2 -2 6
-28 5 -29 15 -3 38 27 25 25 32 -12 41 l-33 7 33 25 33 26 -32 16 -32 17 32
19 32 19 -26 21 -27 21 32 13 31 13 -22 23 -22 24 32 11 c31 11 31 12 16 35
-21 32 -20 34 15 34 l31 0 -17 31 -16 32 32 -5 c29 -4 31 -3 25 20 -4 16 -1
28 7 33 9 6 6 8 -9 7 -12 -1 -19 -7 -16 -15 3 -9 -4 -13 -21 -13 l-26 0 32 29
33 29 -27 7 c-34 9 -34 12 -5 36 l22 19 -25 20 c-14 11 -20 20 -14 20 5 0 19
6 29 14 19 14 19 15 1 34 -17 20 -17 21 14 37 l32 17 -22 23 -21 23 36 8 37 9
-22 28 -21 27 23 0 c13 0 29 4 37 9 12 8 12 13 -3 35 l-16 26 40 0 41 0 -16
29 -15 30 35 -6 35 -6 -5 42 c-3 30 1 43 12 50 14 7 12 11 -12 23 l-28 15 38
13 37 12 -28 24 -29 23 25 1 c39 1 54 14 35 30 -21 18 -19 30 8 30 36 0 51 14
32 30 -24 20 -18 30 20 30 32 0 35 2 25 19 -17 33 -12 42 23 39 32 -3 35 1 21
35 -6 16 -3 18 31 11 l37 -7 -7 32 c-6 27 -4 30 12 25 16 -5 16 -4 -1 7 -15 9
-21 9 -24 1 -2 -7 -13 -12 -25 -12 -18 1 -17 4 11 19 l33 17 -28 13 -28 14 33
11 32 11 -22 14 c-23 14 -23 15 12 24 29 7 32 10 17 18 -25 14 -21 29 8 29 28
0 29 3 14 32 -11 20 -9 21 21 15 31 -7 32 -6 26 19 -7 25 -6 26 25 20 29 -6
31 -4 25 19 -7 27 3 31 35 15 17 -10 19 -7 19 20 0 30 1 31 22 16 31 -22 38
-20 38 9 0 29 3 30 35 9 23 -15 25 -15 25 0 0 9 9 25 21 37 16 16 18 23 8 35
-9 11 -7 14 11 14 17 0 21 4 17 20 -4 15 0 20 14 20 22 0 23 4 9 30 -10 18 -8
19 19 14 27 -6 29 -4 24 16 -6 21 -3 22 21 16 24 -6 26 -5 20 19 -6 24 -5 25
20 15 24 -9 26 -7 26 15 0 25 1 25 25 9 22 -15 25 -15 25 -1 0 23 18 31 36 16
12 -10 16 -9 21 9 4 18 8 20 26 11 16 -9 22 -8 29 6 9 15 11 15 28 0 17 -15
19 -15 26 7 l7 23 10 -22 c6 -13 14 -23 18 -23z m2624 -129 c67 -30 148 -111
179 -180 27 -61 45 -151 30 -151 -19 0 -112 60 -159 103 -44 39 -123 140 -181
231 l-18 29 52 -6 c28 -3 72 -15 97 -26z m449 -116 c0 -78 -22 -135 -77 -192
-43 -45 -57 -43 -57 10 0 60 24 145 66 235 l35 77 17 -30 c11 -20 17 -53 16
-100z m102 -72 c10 -53 0 -144 -21 -188 -11 -21 -37 -57 -60 -80 l-40 -40 -3
65 c-4 79 8 129 55 233 33 71 38 77 50 61 7 -9 16 -33 19 -51z m111 -218 c-3
-46 -11 -85 -25 -112 -23 -44 -85 -113 -102 -113 -6 0 -10 29 -10 65 0 73 23
153 72 249 l31 61 19 -40 c14 -31 18 -56 15 -110z m93 -41 c18 -52 8 -170 -18
-219 -11 -23 -42 -61 -69 -85 l-48 -45 -3 49 c-2 26 2 71 8 99 12 59 94 237
109 237 5 0 15 -16 21 -36z m-621 10 c29 -8 51 -20 49 -26 -7 -19 -72 -48
-135 -60 -61 -11 -173 -3 -173 12 0 14 67 61 107 76 50 18 89 17 152 -2z
m-3539 -94 c0 -5 -5 -10 -11 -10 -5 0 -7 5 -4 10 3 6 8 10 11 10 2 0 4 -4 4
-10z m4260 -75 c18 -66 8 -153 -26 -215 -26 -48 -96 -120 -116 -120 -14 0 -9
104 8 161 18 63 104 230 114 224 4 -3 13 -25 20 -50z m-586 24 l41 -11 -30
-23 c-42 -35 -140 -58 -219 -53 -36 2 -69 7 -73 12 -12 12 57 64 107 81 47 15
102 13 174 -6z m95 -140 c42 -15 36 -29 -25 -58 -72 -35 -264 -43 -264 -11 0
13 71 59 117 76 41 15 117 12 172 -7z m600 -105 c2 -90 -54 -199 -131 -255
-23 -16 -45 -29 -51 -29 -15 0 0 100 23 163 20 54 89 177 119 210 15 18 16 17
27 -15 7 -18 13 -51 13 -74z m-515 -40 c37 -13 44 -19 35 -30 -15 -18 -103
-50 -162 -58 -50 -8 -157 9 -157 24 0 11 50 47 92 65 44 19 134 19 192 -1z
m594 -83 c8 -82 -6 -135 -50 -202 -40 -60 -107 -119 -135 -119 -21 0 -8 86 23
163 32 80 134 231 147 218 5 -5 12 -32 15 -60z m-507 -68 c21 -8 39 -19 39
-23 0 -4 -24 -18 -52 -31 -44 -20 -69 -24 -148 -24 -52 0 -103 3 -114 8 -18 7
-18 8 0 28 59 65 174 83 275 42z m586 -95 c8 -80 -16 -150 -80 -228 -50 -62
-118 -112 -132 -98 -12 11 15 112 46 178 36 77 141 221 152 211 5 -5 11 -33
14 -63z m-532 -49 c31 -12 54 -26 52 -32 -16 -52 -316 -62 -329 -12 -2 6 21
22 51 38 68 34 145 36 226 6z m601 -105 c10 -67 -11 -148 -50 -193 -18 -20
-46 -55 -64 -77 -29 -38 -83 -74 -112 -74 -27 0 18 138 72 222 46 72 125 168
138 168 5 0 12 -21 16 -46z m-534 -51 c60 -26 60 -27 39 -44 -27 -22 -143 -42
-195 -34 -23 4 -63 13 -90 22 -47 15 -48 17 -30 30 77 60 180 69 276 26z m592
-116 c12 -77 -10 -143 -68 -206 -28 -31 -61 -70 -74 -87 -20 -29 -98 -71 -110
-60 -9 10 20 102 54 166 33 62 167 230 184 230 4 0 11 -19 14 -43z m-528 -42
c30 -14 54 -30 54 -35 0 -37 -219 -49 -303 -16 -42 16 -47 20 -35 32 8 8 36
23 64 34 65 27 146 21 220 -15z m575 -127 c2 -66 -3 -103 -22 -153 -32 -85
-214 -233 -247 -201 -11 12 28 113 67 174 40 61 176 212 192 212 5 0 9 -15 10
-32z m-540 -30 c35 -18 64 -37 64 -43 0 -19 -90 -36 -170 -32 -86 4 -182 37
-170 58 15 24 91 49 151 49 49 0 73 -6 125 -32z m-177 -87 l69 -18 -39 -6
c-44 -7 -126 -46 -131 -63 -4 -14 66 -53 136 -75 44 -13 50 -17 27 -18 -30 -1
-146 -49 -146 -60 0 -4 15 -16 33 -26 l32 -20 -138 -3 c-76 -1 -198 -1 -270 0
l-132 3 230 152 c127 84 237 152 245 152 8 0 46 -8 84 -18z m305 -6 c37 -25
38 -28 55 -125 22 -132 21 -160 -3 -160 -10 0 -24 7 -31 15 -23 27 -71 58
-129 81 l-56 24 42 0 c49 0 119 25 127 45 9 23 -132 104 -186 106 -13 1 5 6
39 13 35 7 66 16 70 19 12 13 33 7 72 -18z m-102 -60 c112 -56 96 -80 -55 -80
-97 0 -113 3 -167 29 l-60 28 50 24 c71 34 163 33 232 -1z m561 -47 c-8 -94
-30 -129 -132 -211 -118 -95 -116 -94 -153 -102 -23 -4 -33 -3 -33 5 0 29 65
142 111 193 45 51 192 177 206 177 3 0 3 -28 1 -62z m-311 10 c5 -8 1 -36 -13
-76 -24 -71 -21 -74 -39 46 -6 40 -5 42 18 42 13 0 29 -6 34 -12z m-231 -124
c64 -30 95 -61 74 -74 -27 -16 -115 -22 -174 -11 -65 12 -166 54 -166 70 0 11
73 39 115 44 50 5 98 -4 151 -29z m561 -72 c-7 -83 -36 -133 -99 -173 -29 -19
-77 -54 -107 -78 -45 -37 -94 -61 -123 -61 -27 0 24 101 88 177 41 48 218 191
238 192 5 1 6 -25 3 -57z m-287 28 c-7 -13 -21 -20 -40 -20 -42 0 -37 16 8 28
20 5 38 10 40 11 1 1 -2 -8 -8 -19z m-329 -81 c20 -7 63 -32 95 -57 50 -39 55
-46 39 -54 -30 -17 -174 -4 -230 21 -56 25 -115 62 -115 73 0 24 147 36 211
17z m626 -127 c-11 -92 -39 -131 -133 -186 -47 -28 -102 -64 -122 -82 -38 -32
-102 -49 -109 -28 -6 17 70 125 123 176 48 46 220 167 238 168 5 0 6 -22 3
-48z m-751 9 c-3 -4 -20 -11 -38 -14 -18 -3 -46 -10 -62 -16 -28 -11 -28 -12
-10 -32 10 -11 45 -38 77 -60 57 -37 58 -39 29 -39 -43 0 -132 -20 -132 -29 0
-10 89 -92 115 -107 16 -9 9 -12 -41 -17 -33 -3 -71 -10 -84 -15 -23 -9 -23
-9 18 -54 l42 -46 -55 -4 c-30 -3 -58 -7 -61 -11 -7 -7 27 -59 70 -105 l30
-33 -70 7 c-102 9 -105 -8 -23 -108 l39 -47 -32 10 c-18 5 -57 9 -85 9 l-53 0
0 360 0 360 166 0 c91 0 163 -4 160 -9z m349 -103 c-8 -135 -23 -250 -40 -318
-7 -30 -21 -86 -31 -125 -37 -154 -153 -417 -238 -544 -20 -29 -36 -56 -36
-60 0 -4 -22 -34 -49 -67 -26 -33 -50 -66 -52 -72 -2 -6 -35 -47 -73 -91 -67
-78 -71 -81 -113 -81 -43 0 -43 0 -43 36 0 34 1 35 33 32 28 -3 32 0 35 24 2
14 -7 57 -20 96 l-24 69 37 -24 c21 -14 57 -27 80 -30 l42 -6 -6 36 c-3 19
-16 62 -30 95 l-24 59 48 -23 c26 -13 61 -24 79 -24 30 0 31 1 25 33 -4 17
-17 55 -30 83 l-23 51 49 -18 c54 -21 77 -23 97 -11 15 10 -15 87 -54 139 -32
42 -31 45 11 27 40 -16 125 -19 125 -4 0 19 -48 106 -77 141 -23 27 -25 32 -8
25 57 -22 145 -25 145 -5 0 16 -31 71 -60 109 l-28 35 71 0 c96 0 98 14 15
100 l-64 65 51 -6 c54 -6 105 8 105 28 0 16 -63 85 -105 116 l-30 21 52 1 c57
0 103 14 103 30 0 17 -85 97 -126 119 l-39 20 60 1 c33 1 69 5 80 10 11 5 35
9 53 9 l34 1 -7 -102z m73 65 c-12 -21 -23 -40 -25 -42 -2 -2 -3 14 -3 37 0
38 2 42 25 42 l24 0 -21 -37z m-283 -12 c53 -24 131 -94 121 -109 -9 -15 -79
-15 -148 -1 -83 17 -216 95 -196 114 12 12 96 23 138 18 25 -2 63 -13 85 -22z
m278 -156 c-20 -30 -37 -53 -38 -52 -1 1 0 23 3 49 3 42 7 47 30 51 15 2 30 5
34 6 5 0 -9 -24 -29 -54z m331 18 c-8 -48 -37 -116 -64 -150 -27 -34 -265
-152 -309 -153 l-33 0 17 28 c72 112 133 168 284 259 106 64 114 65 105 16z
m-634 -19 c30 -14 74 -46 98 -72 41 -44 43 -47 23 -56 -50 -22 -219 29 -296
91 -59 47 -46 59 65 62 40 0 70 -6 110 -25z m958 -199 c2 -2 3 -201 3 -442 -1
-404 -5 -532 -17 -590 l-4 -23 -365 0 c-220 0 -365 4 -365 9 0 5 4 21 10 35 8
23 15 26 55 26 69 0 85 22 85 116 0 63 4 83 26 119 15 26 23 52 20 63 -4 12 1
26 15 38 24 21 69 105 69 128 0 10 -7 12 -22 8 -21 -5 -20 -3 8 34 17 21 41
57 52 79 l21 40 1 -277 c0 -270 5 -322 33 -340 7 -4 34 -8 61 -8 91 0 86 -31
86 488 0 502 1 492 -62 492 -26 0 -28 3 -28 40 0 37 -2 40 -19 30 -28 -15 -33
-13 -21 9 10 19 16 18 182 -26 95 -25 174 -46 176 -48z m-997 47 c43 -19 121
-89 141 -126 10 -18 7 -19 -60 -14 -49 4 -89 14 -135 35 -60 29 -147 95 -147
113 0 26 140 20 201 -8z m349 21 c-1 -10 -58 -73 -66 -73 -6 0 4 58 13 73 2 4
15 7 29 7 13 0 24 -3 24 -7z m295 -92 c-25 -76 -67 -114 -160 -146 -44 -15
-109 -42 -145 -61 -66 -35 -94 -41 -119 -25 -20 13 94 131 173 179 74 44 260
122 264 111 2 -5 -4 -31 -13 -58z m-1626 -52 c147 -49 273 -94 280 -98 10 -7
8 -18 -9 -52 -22 -43 -501 -931 -506 -937 -3 -5 8 -5 -825 -3 l-766 1 -246
458 c-135 251 -247 463 -249 470 -2 8 88 48 267 117 301 117 315 122 300 107
-6 -6 -109 -54 -230 -107 -121 -53 -223 -100 -227 -103 -6 -6 387 -749 438
-830 l15 -22 731 2 731 3 228 420 c125 231 224 423 220 427 -3 3 -116 54 -251
113 -135 58 -249 110 -254 116 -6 5 8 9 38 9 35 0 125 -26 315 -91z m-113 -50
c126 -55 232 -103 236 -107 4 -4 -91 -189 -211 -412 l-219 -405 -723 0 -724 0
-217 400 c-119 220 -217 405 -217 410 -1 13 428 200 437 190 4 -4 1 -10 -5
-12 -10 -4 -13 -59 -13 -232 l0 -227 -30 -29 c-16 -16 -30 -32 -30 -37 0 -4
354 -8 788 -8 l787 1 -27 20 c-73 54 -67 28 -70 302 -2 136 0 247 3 247 4 0
109 -45 235 -101z m1031 47 c52 -26 85 -58 126 -121 17 -25 23 -41 16 -46 -17
-10 -95 8 -157 38 -64 31 -177 136 -166 154 11 19 127 3 181 -25z m-3008 -30
c-3 -3 -64 -28 -137 -56 l-133 -52 29 -51 c16 -29 134 -247 261 -484 l233
-433 807 0 807 0 39 73 c201 374 489 904 496 911 5 6 25 4 50 -3 31 -9 39 -16
34 -29 -12 -31 -377 -707 -384 -712 -5 -3 -12 -17 -17 -31 -5 -14 -43 -90 -84
-167 l-75 -142 -865 0 -865 0 -288 531 c-158 293 -286 534 -283 536 6 6 348
111 365 112 8 1 12 -1 10 -3z m3687 -68 c-9 -46 -57 -120 -86 -135 -14 -6 -72
-26 -130 -43 -58 -18 -126 -43 -153 -56 -44 -23 -97 -25 -97 -4 0 20 143 138
202 168 62 31 241 100 262 102 5 0 6 -15 2 -32z m-755 -39 c55 -24 117 -86
149 -149 l22 -43 -46 5 c-71 8 -154 54 -223 125 -81 82 -82 98 -7 89 31 -3 78
-16 105 -27z m345 -107 c-20 -20 -22 -1 -4 31 11 20 12 21 16 3 2 -10 -3 -26
-12 -34z m-552 -91 c-2 -2 -15 -1 -29 3 -22 6 -25 12 -25 48 l0 42 29 -44 c15
-25 27 -47 25 -49z m148 52 c27 -15 62 -43 78 -63 35 -44 76 -127 67 -136 -14
-14 -115 30 -180 78 -66 49 -101 87 -127 137 l-12 24 62 -6 c38 -4 81 -17 112
-34z m754 -16 c-9 -23 -35 -64 -58 -91 -43 -47 -44 -48 -144 -66 -56 -10 -133
-28 -172 -41 -56 -18 -76 -20 -94 -12 -23 11 -22 12 31 62 73 68 183 124 327
165 66 19 121 32 123 30 2 -2 -3 -23 -13 -47z m-894 -67 c87 -34 144 -95 177
-193 l20 -57 -22 0 c-32 0 -123 55 -172 105 -39 38 -105 138 -105 158 0 13 49
7 102 -13z m508 -7 c-1 -10 -50 -47 -50 -38 0 17 22 45 35 45 8 0 15 -3 15 -7z
m324 -114 c-8 -17 -34 -51 -55 -74 -38 -41 -44 -44 -107 -50 -93 -9 -223 -33
-272 -50 -31 -11 -46 -12 -65 -3 -14 6 -25 14 -25 18 0 12 115 89 164 110 79
33 266 75 354 79 22 1 22 0 6 -30z m-905 -14 c61 -31 105 -78 134 -145 35 -78
41 -110 22 -110 -60 0 -204 129 -248 222 -15 31 -27 60 -27 63 0 12 73 -6 119
-30z m487 -40 c-21 -16 -32 -13 -21 4 3 6 14 11 23 11 15 -1 15 -2 -2 -15z
m-598 -76 c34 -16 73 -45 88 -62 35 -41 71 -121 80 -175 l7 -43 -29 11 c-96
37 -191 140 -237 258 l-17 42 23 0 c13 0 51 -14 85 -31z m934 -41 c-37 -57
-93 -108 -121 -108 -77 -1 -255 -21 -314 -36 -55 -13 -73 -14 -94 -5 l-26 12
34 25 c50 37 137 80 202 99 62 18 226 42 295 44 l44 1 -20 -32z m-432 -28 c0
-5 -5 -10 -11 -10 -5 0 -7 5 -4 10 3 6 8 10 11 10 2 0 4 -4 4 -10z m-625 -38
c96 -46 152 -124 173 -239 8 -47 7 -53 -8 -53 -24 0 -86 47 -143 109 -46 49
-88 124 -102 184 -9 35 3 35 80 -1z m975 -70 c0 -17 -58 -89 -88 -111 -27 -19
-43 -21 -166 -21 -84 0 -166 -6 -211 -15 -59 -12 -80 -13 -97 -4 -21 11 -21
12 -2 26 43 33 158 84 222 99 103 24 342 42 342 26z m-1083 -41 c86 -44 147
-137 159 -244 8 -68 -2 -72 -63 -28 -84 61 -165 185 -180 275 -6 36 -5 36 20
27 15 -6 43 -19 64 -30z m-93 -119 c70 -48 126 -163 126 -259 l0 -44 -32 17
c-82 42 -189 201 -204 302 l-7 43 39 -16 c21 -9 57 -28 78 -43z m1059 -23
c-10 -17 -33 -44 -52 -59 l-33 -28 -207 -5 c-113 -3 -217 -8 -231 -11 -16 -5
-32 -2 -45 8 -19 14 -15 17 65 55 112 54 192 69 373 70 l148 1 -18 -31z m-109
-118 c18 -7 16 -11 -19 -50 -58 -64 -76 -70 -170 -59 -44 5 -151 8 -238 5
-159 -4 -190 1 -152 30 26 19 120 53 185 68 60 14 363 18 394 6z m-124 -139
l25 -10 -47 -46 c-27 -25 -66 -55 -88 -66 -142 -72 -330 -62 -462 25 -23 15
-36 31 -32 35 12 12 140 60 189 71 51 11 382 4 415 -9z m-3973 -14 c-3 -8 -6
-5 -6 6 -1 11 2 17 5 13 3 -3 4 -12 1 -19z m1113 -583 l0 -245 -50 0 -50 0 0
245 0 245 50 0 50 0 0 -245z m180 0 l0 -245 -45 0 -45 0 0 245 0 245 45 0 45
0 0 -245z m190 0 l0 -245 -45 0 -45 0 0 245 0 245 45 0 45 0 0 -245z m180 0
l0 -245 -45 0 -45 0 0 245 0 245 45 0 45 0 0 -245z m180 0 l0 -245 -45 0 -45
0 0 245 0 245 45 0 45 0 0 -245z m190 0 l0 -245 -45 0 -45 0 0 245 0 245 45 0
45 0 0 -245z m180 0 l0 -245 -45 0 -45 0 0 245 0 245 45 0 45 0 0 -245z m200
0 l0 -245 -45 0 -45 0 0 245 0 245 45 0 45 0 0 -245z m180 0 l0 -245 -45 0
-45 0 0 245 0 245 45 0 45 0 0 -245z m200 0 l0 -245 -50 0 -50 0 0 245 0 245
50 0 50 0 0 -245z m-1807 48 c-7 -2 -21 -2 -30 0 -10 3 -4 5 12 5 17 0 24 -2
18 -5z m724 1 c-3 -3 -12 -4 -19 -1 -8 3 -5 6 6 6 11 1 17 -2 13 -5z m213 -2
c0 -5 -13 -7 -30 -4 -16 2 -30 6 -30 8 0 2 14 4 30 4 17 0 30 -4 30 -8z m727
-88 c-3 -3 -12 -4 -19 -1 -8 3 -5 6 6 6 11 1 17 -2 13 -5z m-730 -66 c-3 -8
-6 -5 -6 6 -1 11 2 17 5 13 3 -3 4 -12 1 -19z m-37 -113 c0 -5 -5 -3 -10 5 -5
8 -10 20 -10 25 0 6 5 3 10 -5 5 -8 10 -19 10 -25z m754 -21 c3 -8 2 -12 -4
-9 -6 3 -10 10 -10 16 0 14 7 11 14 -7z m-487 -30 c-3 -3 -12 -4 -19 -1 -8 3
-5 6 6 6 11 1 17 -2 13 -5z m1948 -203 c3 -5 2 -12 -3 -15 -5 -3 -9 1 -9 9 0
17 3 19 12 6z m55 -30 c0 -24 8 -48 21 -65 11 -14 17 -26 13 -26 -5 0 5 -10
20 -22 16 -13 38 -30 48 -38 20 -15 19 -17 -26 -70 -27 -32 -46 -64 -46 -78
l0 -24 -34 25 c-18 15 -37 23 -41 19 -3 -4 -5 0 -3 8 2 8 -3 14 -9 13 -7 -2
-13 3 -13 10 0 8 -3 9 -8 1 -18 -27 -101 -76 -160 -94 -76 -24 -198 -26 -256
-5 -22 8 -43 12 -48 9 -4 -3 -8 -1 -8 5 0 5 -10 13 -22 17 -12 3 -31 15 -42
25 -11 11 -26 17 -34 14 -7 -2 -11 -1 -8 4 3 5 -1 14 -9 21 -8 7 -15 8 -15 2
0 -5 -13 -15 -29 -22 -16 -6 -32 -18 -35 -26 -3 -7 -12 -11 -20 -8 -8 3 -17 1
-21 -5 -3 -6 -12 -11 -20 -11 -8 0 -26 -5 -42 -11 -15 -7 -83 -13 -151 -13
-68 -1 -118 0 -112 2 7 3 -12 13 -41 22 -40 14 -56 16 -62 7 -6 -8 -7 -6 -3 6
3 9 1 17 -4 17 -5 0 -25 14 -44 30 -34 30 -35 31 -46 10 -17 -32 -108 -78
-189 -96 -90 -20 -230 -15 -279 10 -17 9 -34 16 -38 16 -3 -1 -14 8 -24 20
-11 13 -24 19 -31 14 -7 -4 -9 -3 -6 3 9 14 -19 37 -34 27 -7 -4 -9 -3 -6 3 4
6 0 17 -9 24 -14 11 -18 11 -28 -2 -20 -29 -111 -78 -171 -94 -104 -27 -210
-16 -315 33 -30 14 -61 26 -67 25 -7 0 -11 3 -8 7 3 4 -2 13 -10 20 -17 14
-58 4 -49 -12 4 -6 2 -8 -3 -5 -6 4 -35 -4 -65 -18 -127 -59 -294 -70 -393
-26 -26 11 -51 19 -55 16 -5 -3 -12 0 -16 6 -5 8 -2 10 7 5 8 -4 3 2 -11 13
-15 12 -33 18 -45 15 -15 -4 -16 -3 -6 4 11 8 9 12 -9 22 -18 10 -21 10 -14
-2 6 -11 5 -11 -9 1 -15 12 -21 9 -19 -10 1 -3 -4 -6 -11 -6 -7 0 -40 -17 -74
-37 -78 -46 -170 -70 -236 -62 -48 7 -157 43 -167 56 -3 3 -32 23 -65 43 l-60
36 -125 -41 c-114 -37 -136 -41 -244 -44 -66 -1 -114 1 -106 6 9 6 6 10 -11
15 -13 4 -27 12 -30 17 -3 5 -15 10 -27 11 -12 0 -19 3 -17 6 3 2 -6 11 -19
20 -13 9 -54 41 -92 71 -37 30 -72 54 -77 52 -5 -1 -6 1 -4 5 8 12 -20 46 -31
39 -6 -3 -8 2 -5 14 3 11 1 20 -5 20 -21 0 -19 25 2 26 11 1 44 5 72 9 38 6
58 3 83 -9 17 -9 37 -14 43 -10 7 5 8 3 4 -5 -12 -18 65 -82 82 -69 9 8 11 7
7 -4 -10 -27 88 -63 169 -63 78 1 150 20 139 38 -4 6 0 8 10 4 16 -6 183 81
197 102 10 15 44 2 63 -23 10 -15 22 -24 26 -21 5 2 13 -7 19 -20 13 -28 90
-87 103 -79 5 3 9 0 9 -5 0 -6 5 -11 11 -11 5 0 7 4 4 10 -3 6 1 7 9 4 9 -3
14 -10 11 -14 -7 -11 20 -20 58 -20 37 0 106 30 126 53 7 10 20 17 27 17 8 0
14 7 14 16 0 8 4 13 9 10 8 -5 65 62 74 87 1 5 15 11 30 12 15 2 25 0 22 -4
-2 -4 3 -18 12 -30 11 -16 18 -19 23 -11 5 9 9 9 14 1 4 -6 2 -11 -3 -11 -44
0 71 -83 146 -106 67 -20 222 -16 208 6 -2 4 6 5 18 3 14 -3 61 15 121 45 l98
49 21 -22 c53 -55 192 -115 265 -115 74 0 208 51 195 74 -3 6 -3 8 2 4 11 -11
47 11 39 24 -4 7 -3 8 5 4 6 -4 27 6 48 23 21 17 44 31 53 31 8 0 33 -16 55
-35 80 -71 90 -77 144 -102 66 -30 168 -40 229 -24 23 7 41 15 38 19 -2 4 7 8
20 8 30 2 137 81 129 95 -9 13 77 -22 93 -38 14 -14 59 -36 122 -59 47 -18
165 -18 226 1 27 8 80 35 118 59 93 60 121 56 226 -34 30 -26 64 -52 75 -57
47 -24 209 -8 240 23 8 9 15 12 15 8 0 -3 7 -1 15 6 8 7 12 16 9 21 -3 5 2 6
11 3 11 -5 18 0 22 15 3 11 9 19 13 16 5 -3 27 19 49 47 58 75 61 78 71 78 6
0 10 -17 10 -39z m-230 -565 c0 -2 -7 -7 -16 -10 -8 -3 -12 -2 -9 4 6 10 25
14 25 6z m-2971 -22 c4 3 8 -1 8 -9 0 -27 92 -117 114 -112 4 1 15 -6 25 -15
30 -26 108 -41 182 -35 89 8 259 72 290 110 10 12 17 9 46 -18 42 -39 113 -78
128 -69 6 4 8 3 5 -3 -10 -16 72 -38 138 -38 65 1 139 21 130 36 -4 5 2 6 11
2 10 -4 20 0 26 11 5 9 13 14 17 12 4 -3 17 2 27 12 10 9 32 25 47 35 16 11
25 23 21 30 -4 7 -4 9 1 5 4 -4 20 -1 35 7 28 14 30 13 80 -35 29 -28 58 -50
66 -50 8 0 14 -5 14 -11 0 -5 5 -7 10 -4 6 3 10 1 10 -5 0 -7 7 -9 16 -6 8 3
13 2 10 -3 -7 -11 22 -23 35 -15 5 3 9 1 9 -5 0 -17 82 -34 142 -28 67 6 155
44 214 92 23 19 47 35 53 35 14 0 54 -22 63 -35 5 -6 8 -6 8 -1 0 6 6 3 13 -5
34 -43 178 -50 281 -14 42 14 125 63 161 93 27 24 123 -19 184 -82 19 -20 41
-36 48 -36 28 0 11 -20 -47 -56 -45 -27 -57 -40 -48 -47 9 -6 7 -7 -6 -3 -10
4 -25 1 -33 -5 -11 -10 -20 -7 -44 10 -31 23 -47 19 -71 -14 -4 -5 -11 -10
-15 -11 -4 0 -34 -13 -65 -28 -71 -34 -166 -50 -238 -40 -30 4 -66 8 -78 9
-13 1 -28 8 -33 16 -8 12 -11 12 -20 -1 -9 -13 -10 -13 -7 0 3 8 -10 24 -29
37 -32 21 -54 31 -40 17 15 -15 -65 -63 -153 -91 -72 -23 -300 -25 -320 -2 -3
3 -25 19 -50 36 -25 17 -59 45 -77 61 -31 29 -53 27 -53 -6 0 -7 -4 -11 -9 -8
-5 3 -20 -3 -34 -14 -14 -11 -30 -20 -37 -20 -6 0 -8 -4 -5 -10 4 -6 -1 -7
-11 -3 -13 5 -15 3 -9 -7 5 -8 4 -11 -1 -7 -5 3 -39 -1 -74 -10 -111 -26 -259
1 -355 65 -22 14 -44 27 -50 27 -14 2 -69 -26 -77 -39 -4 -6 -8 -8 -8 -4 0 4
-12 3 -27 -3 -155 -62 -290 -62 -411 -2 -46 23 -56 25 -74 14 -15 -9 -23 -10
-32 -1 -8 8 -7 10 5 5 9 -3 21 0 27 8 9 10 4 17 -23 31 -34 19 -34 19 -65 -7
-16 -14 -58 -39 -93 -56 -63 -31 -167 -55 -167 -40 0 5 -10 9 -23 9 -13 0 -32
7 -43 15 -24 18 -38 19 -28 3 4 -7 4 -10 0 -6 -4 3 -7 9 -7 13 2 8 -87 75 -99
75 -6 0 -10 4 -10 9 0 5 -12 16 -26 26 -24 15 -27 15 -43 1 -17 -15 -19 -15
-31 -1 -7 9 -20 13 -29 10 -8 -3 -12 -3 -9 1 4 3 -16 25 -44 47 -47 36 -50 42
-34 51 10 6 37 26 59 44 68 56 74 57 106 23 16 -17 35 -31 42 -31 7 0 9 -3 6
-7 -13 -13 76 -82 134 -103 65 -25 100 -22 165 9 38 19 124 91 108 91 -4 0 0
6 11 13 10 8 15 19 11 25 -4 7 -2 10 7 6 8 -3 22 6 32 23 11 16 20 23 23 15 2
-7 7 -10 11 -8z m2791 -74 c0 -5 -5 -10 -11 -10 -5 0 -7 5 -4 10 3 6 8 10 11
10 2 0 4 -4 4 -10z m-3250 -30 c0 -5 -2 -10 -4 -10 -3 0 -8 5 -11 10 -3 6 -1
10 4 10 6 0 11 -4 11 -10z m39 -13 c8 -10 7 -14 -2 -14 -8 0 -14 6 -14 14 0 7
1 13 2 13 2 0 8 -6 14 -13z m-304 -25 c-3 -3 -11 0 -18 7 -9 10 -8 11 6 5 10
-3 15 -9 12 -12z m30 -22 c3 -5 1 -10 -4 -10 -6 0 -11 5 -11 10 0 6 2 10 4 10
3 0 8 -4 11 -10z m236 -117 c13 -16 12 -17 -3 -4 -10 7 -18 15 -18 17 0 8 8 3
21 -13z m932 -370 c-7 -2 -19 -2 -25 0 -7 3 -2 5 12 5 14 0 19 -2 13 -5z"/>
<path d="M2210 7553 c0 -5 12 -20 28 -34 l27 -24 -25 30 c-14 17 -26 32 -27
34 -2 2 -3 0 -3 -6z"/>
<path d="M2335 7540 c-3 -5 -1 -10 4 -10 6 0 11 5 11 10 0 6 -2 10 -4 10 -3 0
-8 -4 -11 -10z"/>
<path d="M2172 7514 c10 -10 20 -16 22 -13 3 3 -5 11 -17 18 -21 13 -21 12 -5
-5z"/>
<path d="M2399 7526 c-3 -4 -4 -18 -1 -32 4 -21 9 -24 27 -20 14 4 25 1 28 -7
3 -6 6 -2 6 11 1 19 -2 21 -18 12 -27 -14 -29 -13 -33 16 -2 14 -6 23 -9 20z"/>
<path d="M2458 7443 c6 -2 18 -2 25 0 6 3 1 5 -13 5 -14 0 -19 -2 -12 -5z"/>
<path d="M2485 7419 c-4 -6 -5 -12 -2 -15 2 -3 7 2 10 11 7 17 1 20 -8 4z"/>
<path d="M2518 7393 c6 -2 10 -9 6 -14 -9 -15 2 -10 16 6 10 13 9 15 -11 14
-13 0 -18 -3 -11 -6z"/>
<path d="M2098 7221 l17 -30 22 21 23 21 0 -21 c0 -11 4 -24 10 -27 9 -6 9 -2
-4 39 -6 18 -7 18 -27 0 -17 -16 -22 -16 -29 -4 -6 8 -10 18 -10 23 0 4 -4 7
-10 7 -5 0 -1 -13 8 -29z"/>
<path d="M1947 7223 c-4 -3 -7 -15 -7 -26 0 -13 -5 -17 -16 -13 -8 3 -12 2 -9
-4 12 -20 35 -10 35 16 0 16 4 23 12 18 7 -4 8 -3 4 4 -8 14 -10 14 -19 5z"/>
<path d="M2047 7209 c7 -7 15 -10 18 -7 3 3 -2 9 -12 12 -14 6 -15 5 -6 -5z"/>
<path d="M2217 7213 c-3 -5 -1 -17 4 -28 7 -17 8 -17 8 8 1 27 -4 34 -12 20z"/>
<path d="M1880 7191 c0 -25 6 -27 13 -6 4 8 2 17 -3 20 -6 4 -10 -3 -10 -14z"/>
<path d="M1986 7198 c3 -4 9 -8 15 -8 5 0 9 4 9 8 0 5 -7 9 -15 9 -8 0 -12 -4
-9 -9z"/>
<path d="M2250 7166 c0 -2 9 -6 20 -9 11 -3 20 -1 20 4 0 5 -9 9 -20 9 -11 0
-20 -2 -20 -4z"/>
<path d="M1871 7151 c-8 -6 -9 -11 -3 -15 6 -3 14 -1 17 5 9 14 2 20 -14 10z"/>
<path d="M2266 7123 c-6 -14 -5 -15 5 -6 7 7 10 15 7 18 -3 3 -9 -2 -12 -12z"/>
<path d="M2312 7103 c15 -4 16 -8 7 -26 -10 -21 -10 -21 5 -3 22 27 20 36 -6
35 -17 -1 -19 -2 -6 -6z"/>
<path d="M2318 7043 c7 -3 16 -2 19 1 4 3 -2 6 -13 5 -11 0 -14 -3 -6 -6z"/>
<path d="M1780 6820 c6 -11 13 -20 16 -20 2 0 0 9 -6 20 -6 11 -13 20 -16 20
-2 0 0 -9 6 -20z"/>
<path d="M1819 6803 l-24 -28 26 23 c14 12 29 19 32 15 4 -3 7 -1 7 5 0 20
-15 14 -41 -15z"/>
<path d="M1917 6813 c-2 -5 0 -21 4 -38 7 -29 7 -29 8 8 1 35 -3 46 -12 30z"/>
<path d="M1746 6783 c-6 -14 -5 -15 5 -6 7 7 10 15 7 18 -3 3 -9 -2 -12 -12z"/>
<path d="M1630 6770 c0 -11 2 -20 4 -20 2 0 6 9 9 20 3 11 1 20 -4 20 -5 0 -9
-9 -9 -20z"/>
<path d="M1660 6773 c0 -1 9 -7 20 -13 15 -8 20 -8 20 3 0 7 -9 13 -20 13 -11
0 -20 -1 -20 -3z"/>
<path d="M1995 6770 c3 -5 8 -10 11 -10 2 0 4 5 4 10 0 6 -5 10 -11 10 -5 0
-7 -4 -4 -10z"/>
<path d="M1990 6720 c0 -11 4 -20 9 -20 5 0 7 9 4 20 -3 11 -7 20 -9 20 -2 0
-4 -9 -4 -20z"/>
<path d="M2040 6716 c0 -9 30 -14 35 -6 4 6 -3 10 -14 10 -12 0 -21 -2 -21 -4z"/>
<path d="M2040 6658 c0 -5 17 -8 37 -8 l36 0 -24 -27 c-13 -14 -18 -23 -11
-19 6 4 12 2 12 -3 0 -6 8 -11 18 -11 16 1 16 1 -1 11 -18 10 -18 12 3 34 l21
23 -45 4 c-25 2 -46 0 -46 -4z"/>
<path d="M1590 6289 c-12 -21 -11 -22 2 -12 12 11 17 8 27 -14 l12 -26 28 27
c21 20 30 24 34 14 4 -8 6 -9 6 -1 2 23 -16 22 -40 -3 l-23 -25 -17 32 -16 33
-13 -25z"/>
<path d="M1520 6287 c0 -3 11 -17 24 -30 21 -21 26 -22 31 -9 3 9 3 13 -1 9
-4 -4 -18 3 -31 15 -13 12 -23 19 -23 15z"/>
<path d="M1772 6248 c-2 -39 9 -47 38 -27 12 8 10 9 -7 4 -19 -5 -22 -1 -26
27 l-4 33 -1 -37z"/>
<path d="M1451 6244 c0 -11 3 -14 6 -6 3 7 2 16 -1 19 -3 4 -6 -2 -5 -13z"/>
<path d="M1507 6241 c-4 -17 -3 -21 5 -13 5 5 8 16 6 23 -3 8 -7 3 -11 -10z"/>
<path d="M1701 6253 c-1 -17 16 -25 25 -12 4 7 3 9 -4 5 -5 -3 -13 0 -15 6 -4
9 -6 10 -6 1z"/>
<path d="M1835 6241 c-3 -5 -1 -12 5 -16 5 -3 10 1 10 9 0 18 -6 21 -15 7z"/>
<path d="M1448 6193 c7 -3 16 -2 19 1 4 3 -2 6 -13 5 -11 0 -14 -3 -6 -6z"/>
<path d="M1880 6190 c-25 -6 -25 -6 -3 -12 13 -3 26 -2 29 4 9 14 2 16 -26 8z"/>
<path d="M1925 5960 c3 -5 8 -10 11 -10 2 0 4 5 4 10 0 6 -5 10 -11 10 -5 0
-7 -4 -4 -10z"/>
<path d="M1985 5920 c-3 -5 -1 -10 4 -10 6 0 11 5 11 10 0 6 -2 10 -4 10 -3 0
-8 -4 -11 -10z"/>
<path d="M1948 5903 c7 -3 16 -2 19 1 4 3 -2 6 -13 5 -11 0 -14 -3 -6 -6z"/>
<path d="M1948 5833 c7 -3 16 -2 19 1 4 3 -2 6 -13 5 -11 0 -14 -3 -6 -6z"/>
<path d="M1915 5820 c3 -5 8 -10 11 -10 2 0 4 5 4 10 0 6 -5 10 -11 10 -5 0
-7 -4 -4 -10z"/>
<path d="M1959 5786 c9 -11 9 -15 -1 -19 -7 -3 -2 -6 11 -6 23 -1 24 0 6 19
-20 23 -34 28 -16 6z"/>
<path d="M1607 5733 c-11 -11 -8 -20 7 -20 8 0 12 6 9 14 -6 15 -7 15 -16 6z"/>
<path d="M1696 5732 c-3 -5 1 -9 9 -9 8 0 15 4 15 9 0 4 -4 8 -9 8 -6 0 -12
-4 -15 -8z"/>
<path d="M1867 5703 c-6 -10 35 -63 49 -63 4 0 -2 10 -13 23 -11 12 -22 29
-25 37 -3 9 -7 10 -11 3z"/>
<path d="M1514 5685 c-3 -8 -4 -20 -1 -27 3 -7 6 -3 6 10 1 15 5 21 13 16 7
-4 8 -3 4 4 -10 16 -15 15 -22 -3z"/>
<path d="M1646 5677 c3 -10 9 -15 12 -12 3 3 0 11 -7 18 -10 9 -11 8 -5 -6z"/>
<path d="M1800 5659 c0 -5 5 -7 10 -4 6 3 10 8 10 11 0 2 -4 4 -10 4 -5 0 -10
-5 -10 -11z"/>
<path d="M1442 5640 c0 -14 2 -19 5 -12 2 6 2 18 0 25 -3 6 -5 1 -5 -13z"/>
<path d="M1862 5640 c0 -14 2 -19 5 -12 2 6 2 18 0 25 -3 6 -5 1 -5 -13z"/>
<path d="M1486 5628 c3 -4 9 -8 15 -8 5 0 9 4 9 8 0 5 -7 9 -15 9 -8 0 -12 -4
-9 -9z"/>
<path d="M1388 5593 c7 -3 16 -2 19 1 4 3 -2 6 -13 5 -11 0 -14 -3 -6 -6z"/>
<path d="M1435 5590 c-19 -8 -19 -9 3 -9 12 -1 22 4 22 9 0 6 -1 10 -2 9 -2 0
-12 -4 -23 -9z"/>
<path d="M1400 5551 c0 -6 4 -13 10 -16 6 -3 7 1 4 9 -7 18 -14 21 -14 7z"/>
<path d="M2095 5370 c-3 -6 1 -7 9 -4 18 7 21 14 7 14 -6 0 -13 -4 -16 -10z"/>
<path d="M2030 5330 c-9 -6 -10 -10 -3 -10 6 0 15 5 18 10 8 12 4 12 -15 0z"/>
<path d="M2105 5290 c3 -5 8 -10 11 -10 2 0 4 5 4 10 0 6 -5 10 -11 10 -5 0
-7 -4 -4 -10z"/>
<path d="M1809 5173 l-34 -38 38 34 37 35 0 -31 c0 -34 14 -51 26 -32 4 8 3 9
-4 5 -8 -5 -12 4 -12 28 0 20 -4 36 -8 36 -4 0 -24 -17 -43 -37z"/>
<path d="M2115 5200 c-3 -6 1 -7 9 -4 18 7 21 14 7 14 -6 0 -13 -4 -16 -10z"/>
<path d="M1909 5173 c-13 -16 -12 -17 3 -5 13 10 17 10 21 0 4 -8 6 -7 6 5 1
9 -3 17 -8 17 -5 0 -15 -8 -22 -17z"/>
<path d="M1373 5165 c0 -8 4 -12 9 -9 4 3 8 9 8 15 0 5 -4 9 -8 9 -5 0 -9 -7
-9 -15z"/>
<path d="M1550 5120 c0 -33 -3 -38 -17 -34 -15 5 -15 4 -3 -4 21 -16 30 -5 30
34 0 24 4 33 12 28 7 -4 8 -3 4 4 -14 24 -26 11 -26 -28z"/>
<path d="M1625 5140 c-4 -11 -11 -17 -17 -14 -7 5 -8 2 -3 -6 6 -10 11 -9 22
5 13 19 17 35 9 35 -3 0 -8 -9 -11 -20z"/>
<path d="M2000 5135 c0 -8 2 -15 4 -15 2 0 6 7 10 15 3 8 1 15 -4 15 -6 0 -10
-7 -10 -15z"/>
<path d="M1920 5122 c0 -15 4 -20 16 -15 9 3 12 9 7 12 -4 3 -11 10 -15 15 -5
5 -8 0 -8 -12z"/>
<path d="M1347 5123 c-10 -9 -9 -23 1 -23 5 0 9 7 9 15 0 17 -1 18 -10 8z"/>
<path d="M2117 5119 c7 -7 15 -10 18 -7 3 3 -2 9 -12 12 -14 6 -15 5 -6 -5z"/>
<path d="M1482 5090 c0 -14 2 -19 5 -12 2 6 2 18 0 25 -3 6 -5 1 -5 -13z"/>
<path d="M2040 5089 c-39 -17 -40 -18 -12 -13 34 6 40 -3 20 -26 -11 -12 -10
-12 4 -1 9 7 23 9 30 5 10 -6 11 -5 1 7 -13 16 -6 33 17 42 13 5 13 5 0 6 -8
0 -35 -9 -60 -20z"/>
<path d="M1394 5080 c0 -11 1 -20 3 -20 1 0 7 9 13 20 8 15 8 20 -3 20 -7 0
-13 -9 -13 -20z"/>
<path d="M1487 5040 c-3 -11 -1 -20 4 -20 5 0 9 9 9 20 0 11 -2 20 -4 20 -2 0
-6 -9 -9 -20z"/>
<path d="M1106 5028 c-14 -20 -16 -81 -16 -468 0 -515 -4 -490 86 -490 41 0
59 5 74 20 19 19 20 33 20 470 0 437 -1 451 -20 470 -30 30 -123 29 -144 -2z"/>
<path d="M2104 5043 c5 -9 -2 -13 -21 -15 -47 -2 -51 -3 -60 -12 -4 -5 16 -6
47 -2 l55 7 -25 -28 c-14 -15 -29 -31 -35 -35 -5 -4 4 -8 20 -8 22 0 26 3 15
10 -12 7 -11 13 10 35 23 25 23 26 6 43 -11 9 -16 11 -12 5z"/>
<path d="M1420 5031 c0 -6 5 -13 10 -16 6 -4 8 -11 5 -16 -4 -5 -1 -9 4 -9 6
0 11 -5 11 -11 0 -6 -6 -9 -13 -6 -8 3 -20 1 -28 -4 -10 -6 -4 -9 19 -9 36 0
41 13 17 47 -14 20 -13 22 2 26 14 4 13 5 -4 6 -13 0 -23 -3 -23 -8z"/>
<path d="M2130 4946 c0 -9 40 -13 46 -5 3 5 -6 9 -20 9 -14 0 -26 -2 -26 -4z"/>
<path d="M1415 4920 c10 -11 20 -20 23 -20 3 0 -3 9 -13 20 -10 11 -20 20 -23
20 -3 0 3 -9 13 -20z"/>
<path d="M2110 4895 c-10 -12 -9 -16 4 -21 8 -3 21 -4 28 -1 7 3 2 6 -11 6
-20 1 -21 3 -11 16 7 8 10 15 7 15 -2 0 -10 -7 -17 -15z"/>
<path d="M2178 4863 c6 -2 9 -10 6 -15 -4 -7 -2 -8 4 -4 18 11 14 26 -5 25
-11 0 -13 -3 -5 -6z"/>
<path d="M1356 4792 c-6 -10 44 -36 52 -27 3 3 0 5 -6 5 -6 0 -17 7 -26 15 -8
8 -17 11 -20 7z"/>
<path d="M2206 4764 c-6 -15 -4 -15 11 -3 10 7 20 15 22 16 2 2 -3 3 -11 3 -9
0 -19 -7 -22 -16z"/>
<path d="M1389 4723 l-34 -38 38 34 c34 33 42 41 34 41 -2 0 -19 -17 -38 -37z"/>
<path d="M2155 4729 c-4 -6 -5 -12 -2 -15 2 -3 7 2 10 11 7 17 1 20 -8 4z"/>
<path d="M1388 4683 c7 -3 16 -2 19 1 4 3 -2 6 -13 5 -11 0 -14 -3 -6 -6z"/>
<path d="M2195 4664 c-22 -13 -40 -27 -40 -31 0 -4 -4 -15 -10 -23 -8 -13 -7
-13 8 -1 9 7 14 17 11 22 -3 5 0 9 5 9 6 0 11 -9 11 -21 0 -11 5 -17 10 -14 7
4 7 12 0 24 -8 16 -4 21 20 31 17 7 30 16 30 21 0 11 4 12 -45 -17z"/>
<path d="M1423 4673 c4 -3 1 -13 -6 -22 -11 -14 -10 -14 6 -2 20 15 22 31 5
31 -6 0 -8 -3 -5 -7z"/>
<path d="M2016 4663 c-6 -14 -5 -15 5 -6 7 7 10 15 7 18 -3 3 -9 -2 -12 -12z"/>
<path d="M1926 4645 c-9 -26 -7 -32 5 -12 6 10 9 21 6 23 -2 3 -7 -2 -11 -11z"/>
<path d="M2079 4633 l-24 -28 27 24 27 23 4 -38 4 -39 1 43 c2 49 -6 52 -39
15z"/>
<path d="M1385 4610 c-3 -5 -1 -10 4 -10 6 0 11 5 11 10 0 6 -2 10 -4 10 -3 0
-8 -4 -11 -10z"/>
<path d="M1840 4616 c0 -2 8 -10 18 -17 15 -13 16 -12 3 4 -13 16 -21 21 -21
13z"/>
<path d="M1980 4605 c-7 -9 -8 -15 -2 -15 5 0 12 7 16 15 3 8 4 15 2 15 -2 0
-9 -7 -16 -15z"/>
<path d="M1433 4593 c12 -3 16 -10 12 -21 -5 -13 -3 -14 6 -5 14 14 3 33 -19
32 -15 -1 -14 -2 1 -6z"/>
<path d="M1832 4570 c0 -14 2 -19 5 -12 2 6 2 18 0 25 -3 6 -5 1 -5 -13z"/>
<path d="M1887 4579 c7 -7 15 -10 18 -7 3 3 -2 9 -12 12 -14 6 -15 5 -6 -5z"/>
<path d="M1761 4528 c2 -30 2 -30 6 -6 3 20 9 25 21 22 15 -5 15 -4 2 5 -24
17 -30 13 -29 -21z"/>
<path d="M1433 4513 c24 -4 27 -9 27 -41 l1 -37 18 35 c11 19 17 38 14 42 -2
5 -23 7 -46 7 -30 -2 -34 -3 -14 -6z"/>
<path d="M1701 4492 c-1 -14 27 -72 35 -72 2 0 -2 12 -9 28 -8 15 -17 34 -20
42 -4 10 -6 11 -6 2z"/>
<path d="M1728 4483 c7 -3 16 -2 19 1 4 3 -2 6 -13 5 -11 0 -14 -3 -6 -6z"/>
<path d="M1480 4433 l-25 -4 6 -162 c3 -89 7 -163 7 -164 23 -26 40 -33 86
-33 60 0 86 19 86 63 0 19 5 27 17 27 9 0 13 3 10 7 -4 4 5 19 20 35 15 15 24
28 20 28 -4 0 -21 -15 -37 -32 -27 -31 -29 -31 -30 -11 0 12 9 28 20 36 18 13
19 15 5 21 -9 3 -13 11 -9 17 4 8 3 9 -4 5 -8 -5 -12 1 -12 18 0 25 0 25 -36
10 l-36 -15 6 28 c4 15 9 36 12 46 5 15 2 18 -15 13 -72 -21 -68 -23 -46 31 8
19 15 37 15 39 0 4 -21 3 -60 -3z m175 -203 c-3 -5 -10 -10 -16 -10 -5 0 -9 5
-9 10 0 6 7 10 16 10 8 0 12 -4 9 -10z"/>
<path d="M1688 4378 c10 -13 10 -17 0 -21 -9 -4 -9 -6 -1 -6 20 -2 24 16 5 30
-15 13 -16 12 -4 -3z"/>
<path d="M1643 4342 c-9 -5 -6 -12 10 -21 20 -13 21 -13 9 1 -10 13 -10 17 0
21 7 3 9 6 3 6 -5 0 -15 -3 -22 -7z"/>
<path d="M1683 4304 c4 -4 1 -14 -6 -23 -11 -14 -10 -15 8 -1 11 8 21 15 23
16 2 1 -5 5 -15 8 -9 4 -14 4 -10 0z"/>
<path d="M1690 4156 c0 -2 7 -6 15 -10 8 -3 15 -1 15 4 0 6 -7 10 -15 10 -8 0
-15 -2 -15 -4z"/>
<path d="M1675 4090 c-3 -5 -1 -10 4 -10 6 0 11 5 11 10 0 6 -2 10 -4 10 -3 0
-8 -4 -11 -10z"/>
<path d="M3100 4340 l0 -80 785 0 785 0 0 80 0 80 -785 0 -785 0 0 -80z"/>
<path d="M763 2293 l-89 -358 -323 -42 c-177 -23 -325 -44 -328 -46 -2 -3 83
-124 189 -269 107 -145 255 -348 328 -453 74 -104 158 -220 186 -256 119 -150
260 -209 432 -180 50 8 74 19 122 56 l59 46 168 -101 c961 -580 2067 -795
3173 -619 635 101 1289 353 1792 691 48 32 90 58 94 58 3 0 29 -17 56 -37 49
-35 54 -37 152 -41 204 -8 264 40 556 453 101 143 249 347 328 453 79 107 141
197 138 200 -4 3 -142 23 -309 44 -166 22 -305 42 -309 46 -3 4 -43 153 -87
332 -45 179 -83 328 -84 333 -1 4 -51 -59 -112 -140 -396 -534 -549 -740 -561
-752 -11 -12 -31 -8 -133 29 l-121 42 -66 -58 c-116 -105 -167 -144 -286 -224
-374 -249 -854 -401 -1427 -451 -198 -17 -653 -7 -858 20 -618 80 -1121 262
-1458 526 -44 35 -98 82 -120 105 -22 23 -52 50 -67 61 l-26 19 -102 -41 c-57
-24 -105 -38 -109 -33 -8 8 -531 711 -650 872 -29 39 -54 72 -56 72 -1 0 -43
-161 -92 -357z m6117 -403 c22 -90 42 -166 44 -167 2 -2 87 -14 190 -27 103
-13 189 -26 191 -28 2 -2 -26 -44 -62 -93 -36 -50 -126 -178 -201 -285 -76
-107 -162 -220 -192 -252 -50 -52 -60 -58 -96 -58 -51 0 -64 14 -64 67 0 56
22 112 79 199 l47 70 -204 75 c-112 41 -205 77 -207 80 -4 5 427 590 432 586
1 -1 20 -76 43 -167z m-5746 -153 c113 -152 206 -281 206 -285 0 -5 -87 -43
-194 -87 -107 -43 -193 -83 -192 -89 1 -6 18 -40 38 -76 53 -94 68 -134 68
-183 0 -57 -17 -71 -73 -64 -57 8 -95 50 -296 334 -89 125 -182 256 -207 291
-31 42 -41 63 -32 66 13 4 346 46 366 46 5 0 29 77 52 171 24 94 46 167 50
162 4 -4 100 -133 214 -286z m5344 -327 c155 -57 281 -107 280 -112 -2 -4 -52
-48 -112 -98 -557 -458 -1268 -778 -2008 -904 -277 -48 -431 -60 -758 -60
-429 -1 -697 31 -1094 130 -501 125 -1048 375 -1476 676 -164 116 -300 222
-297 232 2 5 151 69 331 142 275 112 331 132 345 122 9 -7 45 -37 80 -67 329
-275 885 -493 1486 -581 247 -36 360 -44 655 -44 308 0 417 8 677 49 557 90
1041 293 1398 588 l90 75 60 -23 c33 -12 187 -68 343 -125z"/>
<path d="M5900 1184 c-58 -35 -106 -67 -108 -72 -1 -4 4 -16 11 -26 13 -18 15
-18 55 5 22 13 42 21 45 19 2 -3 34 -56 71 -117 l67 -113 30 15 c16 9 28 19
25 23 -2 4 -34 56 -70 115 -36 60 -66 112 -66 115 0 4 18 17 40 30 34 19 39
26 30 42 -6 10 -13 21 -18 23 -4 2 -54 -24 -112 -59z"/>
<path d="M1771 1094 c-46 -80 -82 -146 -80 -148 7 -6 48 -26 53 -26 3 0 15 18
26 39 23 45 24 46 68 56 l32 7 0 -91 0 -91 39 -19 38 -20 -4 92 c-2 51 -5 104
-7 120 -2 26 1 28 68 48 108 31 104 28 71 49 -38 25 -48 25 -145 -6 -45 -14
-84 -24 -86 -22 -2 2 13 30 32 63 27 45 32 60 22 67 -43 29 -41 31 -127 -118z"/>
<path d="M5561 1010 c-40 -9 -77 -35 -105 -74 -42 -56 -11 -189 55 -238 38
-29 101 -34 154 -13 104 39 132 153 63 255 -43 63 -99 86 -167 70z m70 -66
c34 -17 68 -82 69 -127 0 -40 -49 -87 -90 -87 -64 0 -124 94 -106 165 6 25 58
65 84 65 7 0 27 -7 43 -16z"/>
<path d="M2231 983 c-38 -19 -88 -90 -97 -140 -15 -82 33 -159 115 -184 115
-34 221 69 209 201 -6 59 -32 93 -93 121 -50 23 -90 24 -134 2z m147 -78 c12
-14 22 -38 22 -52 0 -41 -39 -112 -71 -128 -40 -21 -63 -19 -98 11 -24 20 -31
34 -31 60 0 48 22 96 56 123 37 29 89 23 122 -14z"/>
<path d="M2620 860 c0 -11 0 -23 0 -27 0 -5 18 -14 40 -21 22 -8 40 -17 40
-22 0 -4 -16 -60 -36 -125 -19 -65 -33 -123 -30 -130 2 -7 15 -14 29 -17 23
-5 26 0 62 121 21 69 40 129 42 133 2 3 24 0 50 -8 25 -8 47 -13 49 -12 1 2 4
14 6 28 3 23 -3 26 -122 62 -69 21 -126 38 -127 38 -2 0 -3 -9 -3 -20z"/>
<path d="M5208 873 c-10 -2 -18 -10 -18 -16 0 -7 22 -78 49 -157 47 -142 49
-145 76 -143 15 1 30 4 32 7 9 9 -99 316 -110 315 -7 -1 -20 -3 -29 -6z"/>
<path d="M4852 781 c-40 -10 -74 -20 -76 -22 -2 -2 12 -75 32 -162 l37 -159
29 6 c16 4 31 7 32 9 2 2 -3 30 -11 62 -19 79 -20 75 18 75 26 0 46 -12 90
-51 52 -46 61 -51 92 -45 19 4 35 11 35 15 0 10 -67 72 -103 96 l-25 16 29 29
c37 36 38 78 3 119 -31 37 -69 39 -182 12z m136 -69 c5 -33 -12 -48 -65 -61
-53 -14 -61 -9 -65 38 -3 29 1 36 22 42 14 4 43 7 65 6 34 -2 41 -6 43 -25z"/>
<path d="M3047 723 c-175 -277 -167 -261 -144 -267 39 -10 47 -7 68 28 l19 33
59 -12 c71 -15 81 -20 81 -48 0 -33 12 -46 50 -53 26 -6 32 -4 28 7 -3 8 -18
83 -34 168 -15 84 -34 160 -42 167 -26 26 -60 17 -85 -23z m58 -122 c7 -53 7
-54 -16 -48 -13 4 -32 7 -41 7 -10 0 -18 4 -18 10 0 17 54 100 61 92 4 -4 10
-31 14 -61z"/>
<path d="M4525 719 c-156 -22 -145 -18 -145 -46 0 -25 2 -25 50 -21 28 3 50 2
51 -1 0 -3 8 -64 18 -136 l17 -130 28 2 c16 1 30 4 33 6 2 3 -3 58 -11 123
-22 162 -23 152 27 156 38 3 42 6 45 31 4 31 -3 32 -113 16z"/>
<path d="M3626 628 c-3 -35 -8 -109 -11 -164 -6 -108 -4 -114 46 -114 17 0 19
8 19 65 l0 65 70 0 c61 0 74 3 95 24 33 33 41 85 20 125 -20 40 -38 47 -147
56 l-86 7 -6 -64z m162 -14 c47 -33 14 -84 -55 -84 l-43 0 0 50 0 50 38 0 c21
0 48 -7 60 -16z"/>
<path d="M4102 682 c-8 -6 -122 -319 -122 -337 0 -1 15 1 34 3 29 3 36 10 49
43 l15 39 66 0 c66 0 66 0 80 -35 13 -31 19 -35 50 -35 20 0 36 2 36 4 0 3
-33 76 -73 163 -63 136 -77 158 -98 161 -13 1 -30 -2 -37 -6z m66 -194 c-13
-8 -78 -11 -78 -4 0 4 25 78 36 106 4 10 14 -4 30 -39 19 -42 22 -56 12 -63z"/>
</g>
</svg>
