<svg width="36" height="36" viewBox="0 0 36 36" fill="none" xmlns="http://www.w3.org/2000/svg">
<path d="M32.4 17.0999L20.7562 5.2874C20.25 4.78115 19.4625 4.78115 18.9562 5.2874C18.45 5.79365 18.45 6.58115 18.9562 7.0874L28.4062 16.7062H4.49995C3.82495 16.7062 3.26245 17.2687 3.26245 17.9437C3.26245 18.6187 3.82495 19.2374 4.49995 19.2374H28.5187L18.9562 28.9687C18.45 29.4749 18.45 30.2624 18.9562 30.7687C19.1812 30.9937 19.5187 31.1062 19.8562 31.1062C20.1937 31.1062 20.5312 30.9937 20.7562 30.7124L32.4 18.8999C32.9062 18.3937 32.9062 17.6062 32.4 17.0999Z" fill="#111928"/>
</svg>
