<svg width="50" height="50" viewBox="0 0 50 50" fill="none" xmlns="http://www.w3.org/2000/svg">
<path d="M46.875 44.1406H44.5312V41.0156H45.7812C46.7188 41.0156 47.5781 40.2344 47.5781 39.2188V31.4062C47.5781 29.0625 45.7031 27.1875 43.3594 27.1875H42.1875C39.8438 27.1875 37.9688 29.0625 37.9688 31.4062V39.2188C37.9688 40.1562 38.75 41.0156 39.7656 41.0156H41.0156V44.1406H36.1719V6.40625C36.1719 4.14062 34.2969 2.34375 32.0312 2.34375H5.46875C3.20312 2.34375 1.40625 4.14062 1.40625 6.40625V43.5156C1.40625 45.7812 3.20312 47.6562 5.46875 47.6562H46.875C47.8125 47.6562 48.6719 46.875 48.6719 45.8594C48.6719 44.8438 47.8125 44.1406 46.875 44.1406ZM41.5625 31.4062C41.5625 31.0156 41.875 30.7031 42.2656 30.7031H43.4375C43.8281 30.7031 44.1406 31.0156 44.1406 31.4062V37.5H41.6406V31.4062H41.5625ZM4.92188 43.5938V6.40625C4.92188 6.09375 5.15625 5.78125 5.54688 5.78125H32.1094C32.4219 5.78125 32.7344 6.01562 32.7344 6.40625V44.1406H25.7812V36.7188C25.7812 32.8125 22.6562 29.6875 18.75 29.6875C14.8438 29.6875 11.7188 32.8125 11.7188 36.7188V44.1406H5.46875C5.15625 44.1406 4.92188 43.9062 4.92188 43.5938ZM22.2656 44.1406H15.2344V36.7188C15.2344 34.7656 16.7969 33.2031 18.75 33.2031C20.7031 33.2031 22.2656 34.7656 22.2656 36.7188V44.1406Z" fill="#111928"/>
<path d="M9.84375 17.2656H15.0781C16.4844 17.2656 17.6562 16.0937 17.6562 14.6875V10.4687C17.6562 9.0625 16.4844 7.89062 15.0781 7.89062H9.84375C8.4375 7.89062 7.26562 9.0625 7.26562 10.4687V14.6875C7.26562 16.0937 8.4375 17.2656 9.84375 17.2656ZM10.7812 11.4844H14.0625V13.75H10.7812V11.4844Z" fill="#111928"/>
<path d="M22.5781 17.2656H27.8125C29.2187 17.2656 30.3906 16.0937 30.3906 14.6875V10.4687C30.3906 9.0625 29.2187 7.89062 27.8125 7.89062H22.5781C21.1719 7.89062 20 9.0625 20 10.4687V14.6875C20 16.0937 21.1719 17.2656 22.5781 17.2656ZM23.5156 11.4844H26.7969V13.75H23.5156V11.4844Z" fill="#111928"/>
<path d="M15 28.0469C16.4063 28.0469 17.5781 26.875 17.5781 25.4687V21.25C17.5781 19.8438 16.4063 18.6719 15 18.6719H9.76563C8.35938 18.6719 7.1875 19.8438 7.1875 21.25V25.4687C7.1875 26.875 8.35938 28.0469 9.76563 28.0469H15ZM10.7813 22.2656H14.0625V24.5313H10.7813V22.2656Z" fill="#111928"/>
<path d="M22.5781 28.0469H27.8125C29.2187 28.0469 30.3906 26.875 30.3906 25.4687V21.25C30.3906 19.8438 29.2187 18.6719 27.8125 18.6719H22.5781C21.1719 18.6719 20 19.8438 20 21.25V25.4687C20 26.875 21.1719 28.0469 22.5781 28.0469ZM23.5156 22.2656H26.7969V24.5313H23.5156V22.2656Z" fill="#111928"/>
</svg>
