<svg width="50" height="48" viewBox="0 0 50 48" fill="none" xmlns="http://www.w3.org/2000/svg">
<path d="M42.8906 12.7279H37.0313L35.625 10.0326C34.6094 8.16081 32.6563 6.96289 30.4688 6.96289H19.5313C17.3438 6.96289 15.3906 8.16081 14.375 10.0326L12.9688 12.7279H7.10938C3.98438 12.7279 1.40625 15.1986 1.40625 18.1934V35.3385C1.40625 38.3333 3.98438 40.804 7.10938 40.804H42.8906C46.0156 40.804 48.5938 38.3333 48.5938 35.3385V18.2682C48.6719 15.1986 46.0938 12.7279 42.8906 12.7279ZM45.1563 35.4134C45.1563 36.6113 44.1406 37.5098 42.9688 37.5098H7.10938C5.85938 37.5098 4.92188 36.5365 4.92188 35.4134V18.2682C4.92188 17.0703 5.9375 16.1719 7.10938 16.1719H14.0625C14.7656 16.1719 15.3125 15.7975 15.625 15.2734L17.5 11.6797C17.8906 10.931 18.6719 10.4818 19.4531 10.4818H30.4688C31.3281 10.4818 32.1094 10.931 32.4219 11.6797L34.2969 15.2734C34.6094 15.8724 35.2344 16.1719 35.8594 16.1719H42.8125C44.0625 16.1719 45 17.1452 45 18.2682V35.4134H45.1563Z" fill="#111928"/>
<path d="M25 18.4927C20.7031 18.4927 17.2656 21.7869 17.2656 25.9048C17.2656 30.0226 20.7031 33.3169 25 33.3169C29.2969 33.3169 32.7344 30.0226 32.7344 25.9048C32.7344 21.7869 29.2969 18.4927 25 18.4927ZM25 29.8729C22.6562 29.8729 20.7812 28.076 20.7812 25.8299C20.7812 23.5838 22.6562 21.7869 25 21.7869C27.3437 21.7869 29.2188 23.5838 29.2188 25.8299C29.2188 28.076 27.3437 29.8729 25 29.8729Z" fill="#111928"/>
<path d="M13.0469 18.4927H9.0625C8.125 18.4927 7.26562 19.2414 7.26562 20.2147C7.26562 21.188 8.04688 21.9367 9.0625 21.9367H13.0469C13.9844 21.9367 14.8437 21.188 14.8437 20.2147C14.8437 19.2414 14.0625 18.4927 13.0469 18.4927Z" fill="#111928"/>
</svg>
