<svg width="50" height="50" viewBox="0 0 50 50" fill="none" xmlns="http://www.w3.org/2000/svg">
<path d="M46.25 3.125C45.0781 1.95312 43.5156 1.32812 41.875 1.32812H41.7969C41.3281 1.32812 40.7812 1.40625 40.3125 1.48437L13.75 8.04688H8.51563C4.84375 8.04688 1.875 11.0156 1.875 14.6875V26.1719C1.875 29.1406 3.82813 31.6406 6.48438 32.5L9.76563 45.7031C10.1563 47.4219 11.7188 48.6719 13.5156 48.6719H14.9219H15C15.3125 48.6719 15.625 48.6719 15.9375 48.5937C18.0469 48.125 19.2969 46.0156 18.8281 43.9062L16.4063 33.5156L40.3906 39.4531C40.8594 39.6094 41.4062 39.6094 41.875 39.6094C43.0469 39.6094 44.1406 39.2969 45.1562 38.6719C46.5625 37.8125 47.5781 36.4062 47.9688 34.7656C48.0469 34.2969 48.125 33.9062 48.125 33.3594V7.57812C48.125 5.85937 47.4219 4.29687 46.25 3.125ZM15.7031 11.25L25 8.98437V32.0312L15.7031 29.6875V11.25ZM5.39063 14.6875C5.39063 12.9687 6.79688 11.5625 8.51563 11.5625H12.2656V29.2187H8.51563C6.79688 29.2187 5.39063 27.8125 5.39063 26.0937V14.6875ZM15.0781 45.0781C15.0781 45.0781 15 45.0781 14.9219 45.0781H13.4375C13.2813 45.0781 13.125 44.9219 13.0469 44.7656L10.1563 32.8125H12.5781L15.3906 44.6875C15.3906 44.8437 15.3125 45.0781 15.0781 45.0781ZM44.5313 33.9062C44.375 34.6094 43.9063 35.2344 43.2813 35.625C42.6563 36.0156 41.875 36.0937 41.1719 35.9375L28.5156 32.8125V8.04688L41.1719 4.92188C41.4063 4.84375 41.5625 4.84375 41.7969 4.84375C42.5 4.84375 43.2031 5.15625 43.6719 5.625C44.2188 6.09375 44.4531 6.79688 44.5313 7.5V33.2031C44.6094 33.5156 44.5313 33.6719 44.5313 33.9062Z" fill="#111928"/>
</svg>
