<svg width="56" height="56" viewBox="0 0 56 56" fill="none" xmlns="http://www.w3.org/2000/svg">
<g filter="url(#filter0_d_245_78)">
<path d="M40.9687 47.5782C34.6406 47.5782 25.6562 43.0469 17.3749 35.2344C6.12494 24.4532 1.35931 12.4219 6.35931 7.10944C6.59369 6.87506 6.90619 6.64069 7.21869 6.48444L13.5468 2.89069C15.1874 1.95319 17.2187 2.42194 18.3124 3.98444L22.9218 10.5469C23.4687 11.3282 23.7031 12.2657 23.4687 13.2032C23.3124 14.0626 22.7656 14.8438 21.9843 15.3907L19.2499 17.1876C21.3593 20.2344 27.0624 27.8126 36.1249 33.2032C36.2031 33.2813 36.2812 33.2032 36.2812 33.2032L38.2343 30.5469C39.3281 29.0626 41.4374 28.6719 43.0781 29.6876L49.9531 34.0626C51.5937 35.0782 52.0624 37.1876 51.0468 38.8282L47.2968 44.8438C47.0624 45.1563 46.8281 45.4688 46.5937 45.7032C45.1874 46.9532 43.2343 47.5782 40.9687 47.5782ZM15.3437 5.93756C15.2656 5.93756 15.3437 5.93756 15.3437 5.93756L8.93744 9.53131C5.96869 12.7344 9.64056 22.9688 19.8749 32.6563C30.2656 42.5001 40.9687 46.0157 44.4062 43.0469L48.1562 37.0313L41.2812 32.6563C41.2031 32.6563 41.1249 32.6563 41.1249 32.6563L39.1718 35.3126C38.0781 36.7969 35.9687 37.1876 34.4062 36.2501C24.6406 30.3907 18.5468 22.2657 16.3593 19.0626C15.8124 18.2813 15.6562 17.3438 15.8124 16.4844C15.9687 15.5469 16.5156 14.7657 17.2968 14.2969L20.0312 12.5001L15.4999 6.01569C15.4218 6.01569 15.3437 5.93756 15.3437 5.93756Z" fill="#111928"/>
</g>
<defs>
<filter id="filter0_d_245_78" x="-1" y="0" width="58" height="58" filterUnits="userSpaceOnUse" color-interpolation-filters="sRGB">
<feFlood flood-opacity="0" result="BackgroundImageFix"/>
<feColorMatrix in="SourceAlpha" type="matrix" values="0 0 0 0 0 0 0 0 0 0 0 0 0 0 0 0 0 0 127 0" result="hardAlpha"/>
<feOffset dy="4"/>
<feGaussianBlur stdDeviation="2"/>
<feComposite in2="hardAlpha" operator="out"/>
<feColorMatrix type="matrix" values="0 0 0 0 0 0 0 0 0 0 0 0 0 0 0 0 0 0 0.25 0"/>
<feBlend mode="normal" in2="BackgroundImageFix" result="effect1_dropShadow_245_78"/>
<feBlend mode="normal" in="SourceGraphic" in2="effect1_dropShadow_245_78" result="shape"/>
</filter>
</defs>
</svg>
