<svg width="50" height="50" viewBox="0 0 50 50" fill="none" xmlns="http://www.w3.org/2000/svg">
<path d="M12.2656 28.125H21.5625C22.5 28.125 23.2812 27.3437 23.2812 26.4062C23.2812 25.4687 22.5 24.6875 21.5625 24.6875H12.2656C11.3281 24.6875 10.5469 25.4687 10.5469 26.4062C10.5469 27.3437 11.25 28.125 12.2656 28.125Z" fill="#111928"/>
<path d="M12.2656 35.3125H23.3594C24.2969 35.3125 25.1562 34.5313 25.1562 33.5938C25.1562 32.6563 24.375 31.875 23.3594 31.875H12.2656C11.3281 31.875 10.5469 32.6563 10.5469 33.5938C10.5469 34.5313 11.25 35.3125 12.2656 35.3125Z" fill="#111928"/>
<path d="M26.875 43.9062H8.67188C8.28125 43.9062 7.96875 43.5938 7.96875 43.2031V5.23437C7.96875 4.84375 8.28125 4.53125 8.67188 4.53125H20.0781V14.8438C20.0781 17.1094 21.9531 18.9844 24.2188 18.9844H35.625V27.1094C35.625 28.0469 36.4062 28.8281 37.3438 28.8281C38.2812 28.8281 39.0625 28.0469 39.0625 27.1094V18.125C39.0625 17.0313 38.5938 15.9375 37.7344 15.1562L24.0625 2.1875C23.2812 1.48438 22.2656 1.01562 21.1719 1.01562H8.67188C6.32813 1.01562 4.45312 2.89062 4.45312 5.23437V43.2812C4.45312 45.625 6.32813 47.5 8.67188 47.5H26.9531C27.8906 47.5 28.6719 46.7188 28.6719 45.7812C28.6719 44.8438 27.8906 43.9062 26.875 43.9062ZM33.0469 15.4688H24.2188C23.8281 15.4688 23.5938 15.2344 23.5938 14.8438V6.5625L33.0469 15.4688Z" fill="#111928"/>
<path d="M33.2812 35.2344C34.3599 35.2344 35.2344 34.3599 35.2344 33.2812C35.2344 32.2026 34.3599 31.3281 33.2812 31.3281C32.2026 31.3281 31.3281 32.2026 31.3281 33.2812C31.3281 34.3599 32.2026 35.2344 33.2812 35.2344Z" fill="#111928"/>
<path d="M41.1719 42.7344C40.0781 42.7344 39.2188 43.5938 39.2188 44.6875C39.2188 45.7812 40.0781 46.6406 41.1719 46.6406C42.2656 46.6406 43.125 45.7812 43.125 44.6875C43.125 43.5938 42.2656 42.7344 41.1719 42.7344Z" fill="#111928"/>
<path d="M43.9063 32.0312C43.2031 31.3281 42.1094 31.3281 41.4063 32.0312L30.9375 42.5C30.2344 43.2031 30.2344 44.2969 30.9375 45C31.25 45.3125 31.7188 45.5469 32.1875 45.5469C32.6563 45.5469 33.125 45.3906 33.4375 45L43.9844 34.4531C44.6094 33.8281 44.6094 32.7344 43.9063 32.0312Z" fill="#111928"/>
</svg>
